<?xml version="1.0" encoding="utf-8"?>
<!-- Generator: Adobe Illustrator 21.1.0, SVG Export Plug-In . SVG Version: 6.00 Build 0)  -->
<svg version="1.1" xmlns="http://www.w3.org/2000/svg" xmlns:xlink="http://www.w3.org/1999/xlink" x="0px" y="0px"
	 viewBox="0 0 1366 768" style="enable-background:new 0 0 1366 768;" xml:space="preserve">
<style type="text/css">
	.st0{fill:#0C0202;}
</style>

<g id="Logo">
	<g>

			<rect x="1186.6" y="329" transform="matrix(0.2166 -0.9763 0.9763 0.2166 590.2755 1454.2369)" class="st0" width="29.4" height="60.6"/>

			<rect x="1095.5" y="305.6" transform="matrix(0.2167 -0.9762 0.9762 0.2167 538.6606 1349.5282)" class="st0" width="29.4" height="67"/>

			<rect x="1277" y="346.4" transform="matrix(0.2167 -0.9762 0.9762 0.2167 641.5219 1558.2812)" class="st0" width="29.4" height="65.9"/>
		<path class="st0" d="M1275.5,300.5l9.2-41.5l0.3-1c1.5-6.4,7.4-9.9,14.1-9.4c4.5,0.4,8.2,2.8,10.4,6.4l25-16.9
			c-7.2-10.2-18.8-17.3-32.3-18.4c-3-0.2-5.9-0.2-8.8,0.2c-18.2,2.2-33.3,15.7-37.4,33.7l-0.2-0.1l-21.8,98l-6.4,28.7l-17,76.7
			c0,0-9.2,42.5-9.7,43.8c-2.1,5.3-7.5,8.8-13.5,8.3c-4.5-0.3-8.2-2.8-10.4-6.3l-25,16.9c7.2,10.2,18.8,17.3,32.3,18.4
			c2.8,0.2,5.7,0.2,8.4-0.1c17.3-1.9,31.9-14.1,37-30.7l1.5-6.7l25.3-113.9l6.4-28.7L1275.5,300.5z"/>
		<path class="st0" d="M1191.5,263.5l9.2-41.5l0.3-1c1.5-6.4,7.4-9.9,14.1-9.4c4.5,0.4,8.2,2.8,10.4,6.4l25-16.9
			c-7.2-10.2-18.8-17.3-32.3-18.4c-3-0.2-5.9-0.2-8.8,0.2c-18.2,2.2-33.3,15.7-37.4,33.7l-0.2-0.1L1146.2,332l-6.4,28.7l-13.1,59.2
			c0,0-9.2,42.5-9.7,43.8c-2.1,5.3-7.5,8.8-13.5,8.3c-4.5-0.3-8.2-2.8-10.4-6.3l-25,16.9c7.2,10.2,18.8,17.3,32.3,18.4
			c2.8,0.2,5.7,0.2,8.4-0.1c17.3-1.9,31.9-14.1,37-30.7l1.5-6.7l21.4-96.4l6.4-28.7L1191.5,263.5z"/>
	</g>
</g>
</svg>
